<svg width="35" height="35" viewBox="0 0 35 35" fill="none" xmlns="http://www.w3.org/2000/svg">
<path d="M26.7507 21.6828C26.1921 19.4748 24.9847 17.5277 23.3137 16.14C21.6427 14.7524 19.6003 14.0009 17.5 14.0009C15.3996 14.0009 13.3573 14.7524 11.6862 16.14C10.0152 17.5277 8.80783 19.4748 8.2493 21.6828L6.91828 26.9445C6.6793 27.8892 6.64364 28.8814 6.81409 29.8436C6.98454 30.8058 7.3565 31.7121 7.90095 32.4918C8.4454 33.2715 9.14763 33.9035 9.9529 34.3386C10.7582 34.7736 11.6447 35 12.5434 35H22.4566C23.3553 35 24.2418 34.7736 25.0471 34.3386C25.8523 33.9035 26.5546 33.2715 27.099 32.4918C27.6435 31.7121 28.0154 30.8058 28.1859 29.8436C28.3563 28.8814 28.3207 27.8892 28.0817 26.9445L26.7507 21.6828ZM25.2421 30.9494C24.9169 31.419 24.4958 31.7994 24.0123 32.0607C23.5288 32.322 22.9962 32.4569 22.4566 32.4547H12.5434C12.0042 32.4547 11.4722 32.3189 10.9891 32.0578C10.5059 31.7968 10.0845 31.4176 9.75787 30.9497C9.43119 30.4819 9.20802 29.9381 9.10575 29.3608C9.00348 28.7835 9.02488 28.1882 9.16827 27.6213L10.4993 22.3597C10.922 20.6888 11.8357 19.2152 13.1003 18.1651C14.3649 17.115 15.9105 16.5463 17.5 16.5463C19.0895 16.5463 20.6351 17.115 21.8997 18.1651C23.1642 19.2152 24.078 20.6888 24.5007 22.3597L25.8317 27.6213C25.9772 28.1879 25.9996 28.7837 25.8973 29.3614C25.7949 29.9392 25.5706 30.483 25.2421 30.9497V30.9494ZM9.48382 15.7756C9.68688 14.3915 9.41758 12.9099 8.72523 11.6026C8.03288 10.2952 6.99071 9.30008 5.79032 8.79984C4.50482 8.26445 3.19364 8.34972 2.09705 9.03982C-0.0829232 10.4124 -0.656601 13.7952 0.818476 16.5808C1.51061 17.8881 2.55286 18.8835 3.75324 19.3835C4.28498 19.6095 4.85019 19.7273 5.42088 19.7312C6.13186 19.734 6.83082 19.5312 7.44651 19.1434C8.54244 18.4533 9.26602 17.2572 9.48382 15.7756ZM7.17889 15.3732C7.07459 16.0835 6.75511 16.6396 6.27932 16.9391C5.80353 17.2387 5.2022 17.2622 4.58586 17.0057C3.88468 16.7137 3.26454 16.1108 2.83959 15.3081C2.02265 13.765 2.21682 11.9037 3.2641 11.2442C3.52737 11.0812 3.82554 10.9973 4.12823 11.0009C4.41217 11.0041 4.69318 11.0639 4.95742 11.1773C5.65859 11.4694 6.27873 12.0723 6.70369 12.8749C7.12864 13.6776 7.29735 14.565 7.17889 15.3732ZM9.73663 10.5025C10.5654 11.225 11.5118 11.6012 12.4688 11.6011C12.7555 11.601 13.0413 11.5674 13.3214 11.5008C15.7812 10.9177 17.2726 7.88623 16.6461 4.74314C16.3521 3.26796 15.6374 1.97374 14.6338 1.0987C13.559 0.161697 12.2859 -0.192979 11.049 0.100371C8.58927 0.683411 7.09786 3.7149 7.72434 6.85799C8.01837 8.33325 8.73304 9.62748 9.73663 10.5025ZM11.5447 2.58764C11.6581 2.56097 11.7738 2.54764 11.8898 2.54787C12.3237 2.54787 12.7699 2.73296 13.1763 3.08724C13.7625 3.5983 14.1848 4.37852 14.3652 5.28426C14.7124 7.02583 14.0074 8.73382 12.8257 9.01397C12.2887 9.14124 11.7093 8.96402 11.1942 8.51485C10.608 8.00371 10.1857 7.22349 10.0053 6.31783C9.658 4.57578 10.363 2.86778 11.5447 2.58764ZM32.9029 9.03982C31.8068 8.34972 30.4949 8.26445 29.2096 8.79984C28.0093 9.29992 26.967 10.2952 26.2749 11.6026C25.5827 12.9099 25.3134 14.3919 25.5163 15.7756C25.7338 17.2572 26.4572 18.4533 27.5536 19.1434C28.1693 19.5312 28.8682 19.734 29.5792 19.7312C30.1499 19.7273 30.7151 19.6095 31.2469 19.3835C32.4473 18.8835 33.4895 17.8881 34.1816 16.5808C35.6566 13.7952 35.0829 10.4124 32.9029 9.03982ZM32.1604 15.3081C31.7354 16.1108 31.1153 16.7137 30.4141 17.0057C29.7981 17.2624 29.1966 17.2388 28.7208 16.9391C28.245 16.6394 27.9257 16.0835 27.8212 15.3732C27.7026 14.565 27.8713 13.6779 28.2963 12.8756C28.7213 12.0734 29.3414 11.4701 30.0425 11.178C30.3068 11.0645 30.5878 11.0046 30.8717 11.0013C31.1744 10.9977 31.4726 11.0816 31.7359 11.2446C32.7831 11.9036 32.9775 13.7646 32.1604 15.3081ZM21.6785 11.5008C21.9586 11.5674 22.2445 11.601 22.5311 11.6011C23.4881 11.6011 24.4349 11.225 25.2633 10.5025C26.2669 9.62755 26.9816 8.33325 27.2756 6.85807C27.9021 3.71498 26.4107 0.683491 23.951 0.10045C22.7141 -0.19274 21.441 0.161697 20.3662 1.09878C19.3625 1.97374 18.6478 3.26804 18.3539 4.74314C17.7273 7.88623 19.2188 10.9177 21.6785 11.5008ZM20.6347 5.28386C20.8152 4.37812 21.2375 3.59758 21.8237 3.08684C22.2301 2.73256 22.6763 2.54747 23.1101 2.54747C23.2262 2.54724 23.3419 2.56057 23.4553 2.58724C24.6369 2.86739 25.342 4.57578 24.9948 6.31695C24.8142 7.22269 24.392 8.00324 23.8059 8.51405C23.2909 8.96314 22.7118 9.14036 22.1744 9.01318C20.9926 8.73343 20.2875 7.02519 20.6347 5.28386Z" fill="#c71700"/>
</svg>
