<svg width="39" height="35" viewBox="0 0 39 35" fill="none" xmlns="http://www.w3.org/2000/svg">
<g clip-path="url(#clip0_2_23)">
<path d="M25.2916 12.0312C25.2916 5.38672 19.6314 0 12.6458 0C5.66022 0 2.11632e-05 5.38672 2.11632e-05 12.0312C2.11632e-05 14.7362 0.94967 17.2238 2.53343 19.2363C1.53697 21.4758 0.148366 23.1547 0.126479 23.1793C-0.00119478 23.33 -0.035849 23.5536 0.0388704 23.7504C0.115535 23.9463 0.279809 24.0625 0.465726 24.0625C2.79729 24.0625 4.76772 23.3023 6.28643 22.4191C8.15897 23.4541 10.3233 24.0625 12.6458 24.0625C19.6314 24.0625 25.2916 18.6758 25.2916 12.0312ZM36.4539 30.3311C37.986 28.2939 38.9101 25.7441 38.9101 22.9688C38.9101 16.3242 33.6815 10.9375 27.2371 10.9375C27.2179 10.9375 27.1994 10.9403 27.1803 10.9404C27.2067 11.2998 27.2371 11.6621 27.2371 12.0312C27.2371 18.7729 22.3928 24.418 15.9227 25.874C17.1873 31.1104 21.7106 35 27.2371 35C29.2853 35 31.2083 34.4526 32.8821 33.4975C34.3625 34.3164 36.2411 35 38.4419 35C38.6279 35 38.7921 34.8821 38.8687 34.6852C38.9435 34.4884 38.9087 34.2649 38.7811 34.1141C38.7642 34.0908 37.4449 32.4912 36.4539 30.3311Z" fill="#699BF7"/>
</g>
<defs>
<clipPath id="clip0_2_23">
<rect width="38.9102" height="35" fill="white"/>
</clipPath>
</defs>
</svg>
