<svg width="35" height="35" viewBox="0 0 35 35" fill="none" xmlns="http://www.w3.org/2000/svg">
<path d="M17.5 0C14.0388 0 10.6554 1.02636 7.77753 2.94928C4.89967 4.87221 2.65665 7.60533 1.33212 10.803C0.0075825 14.0007 -0.338976 17.5194 0.336265 20.9141C1.01151 24.3087 2.67822 27.4269 5.12564 29.8744C7.57306 32.3218 10.6913 33.9885 14.0859 34.6637C17.4806 35.339 20.9993 34.9924 24.197 33.6679C27.3947 32.3434 30.1278 30.1003 32.0507 27.2225C33.9736 24.3446 35 20.9612 35 17.5C35 12.8587 33.1563 8.40752 29.8744 5.12563C26.5925 1.84375 22.1413 0 17.5 0V0ZM15.3271 8.75C15.3271 8.16984 15.5576 7.61344 15.9678 7.2032C16.378 6.79297 16.9344 6.5625 17.5146 6.5625C18.0947 6.5625 18.6511 6.79297 19.0614 7.2032C19.4716 7.61344 19.7021 8.16984 19.7021 8.75V18.7979C19.7021 19.0852 19.6455 19.3696 19.5356 19.635C19.4256 19.9004 19.2645 20.1416 19.0614 20.3447C18.8583 20.5478 18.6171 20.709 18.3517 20.8189C18.0863 20.9288 17.8019 20.9854 17.5146 20.9854C17.2273 20.9854 16.9429 20.9288 16.6775 20.8189C16.4121 20.709 16.1709 20.5478 15.9678 20.3447C15.7647 20.1416 15.6035 19.9004 15.4936 19.635C15.3837 19.3696 15.3271 19.0852 15.3271 18.7979V8.75ZM17.5 28.4375C17.0039 28.4375 16.5189 28.2904 16.1064 28.0148C15.694 27.7391 15.3725 27.3474 15.1826 26.8891C14.9928 26.4307 14.9431 25.9264 15.0399 25.4398C15.1367 24.9532 15.3756 24.5063 15.7263 24.1555C16.0771 23.8047 16.5241 23.5658 17.0107 23.469C17.4972 23.3722 18.0016 23.4219 18.4599 23.6118C18.9182 23.8016 19.31 24.1231 19.5856 24.5356C19.8612 24.9481 20.0083 25.4331 20.0083 25.9292C20.0083 26.5944 19.7441 27.2324 19.2737 27.7028C18.8033 28.1732 18.1653 28.4375 17.5 28.4375Z" fill="#F24E1E"/>
</svg>
