<svg width="35" height="35" viewBox="0 0 35 35" fill="none" xmlns="http://www.w3.org/2000/svg">
<path d="M3.83332 15.5H27.1667C27.1667 10.0604 23.4333 5.48125 18.4167 4.19792C18.2125 5.64167 16.9583 6.75 15.5 6.75C14.0417 6.75 12.7875 5.64167 12.5833 4.19792C7.56666 5.48125 3.83332 10.0604 3.83332 15.5ZM15.5 0.916668C17.4151 0.916668 19.3115 1.29388 21.0808 2.02676C22.8501 2.75964 24.4578 3.83384 25.812 5.18803C27.1661 6.54221 28.2404 8.14987 28.9732 9.9192C29.7061 11.6885 30.0833 13.5849 30.0833 15.5C30.0833 16.2735 29.776 17.0154 29.229 17.5624C28.6821 18.1094 27.9402 18.4167 27.1667 18.4167H3.83332C3.05977 18.4167 2.31791 18.1094 1.77093 17.5624C1.22395 17.0154 0.916656 16.2735 0.916656 15.5C0.916656 11.6323 2.45311 7.92293 5.18802 5.18803C7.92292 2.45312 11.6322 0.916668 15.5 0.916668ZM17.6875 22.7917H13.3125L12.4667 25.7083L12.0729 27.1667H18.9271L18.5333 25.7083L17.6875 22.7917ZM19.875 19.875L21.3333 24.9792L21.7271 26.3646L21.8437 27.1667C21.8437 28.7708 20.5312 30.0833 18.9271 30.0833H12.0729L11.3729 29.9958C10.6227 29.8022 9.98005 29.3187 9.58626 28.6514C9.19247 27.9841 9.07976 27.1878 9.27291 26.4375L9.66666 24.9792L11.125 19.875H19.875ZM21.3333 8.20833C22.1069 8.20833 22.8487 8.51562 23.3957 9.06261C23.9427 9.60959 24.25 10.3515 24.25 11.125C24.25 11.8985 23.9427 12.6404 23.3957 13.1874C22.8487 13.7344 22.1069 14.0417 21.3333 14.0417C20.5598 14.0417 19.8179 13.7344 19.2709 13.1874C18.7239 12.6404 18.4167 11.8985 18.4167 11.125C18.4167 10.3515 18.7239 9.60959 19.2709 9.06261C19.8179 8.51562 20.5598 8.20833 21.3333 8.20833ZM9.66666 8.20833C10.4402 8.20833 11.1821 8.51562 11.729 9.06261C12.276 9.60959 12.5833 10.3515 12.5833 11.125C12.5833 11.8985 12.276 12.6404 11.729 13.1874C11.1821 13.7344 10.4402 14.0417 9.66666 14.0417C8.89311 14.0417 8.15124 13.7344 7.60426 13.1874C7.05728 12.6404 6.74999 11.8985 6.74999 11.125C6.74999 10.3515 7.05728 9.60959 7.60426 9.06261C8.15124 8.51562 8.89311 8.20833 9.66666 8.20833Z" fill="#496389"/>
</svg>
