<svg width="35" height="35" viewBox="0 0 35 35" fill="none" xmlns="http://www.w3.org/2000/svg">
<path fill-rule="evenodd" clip-rule="evenodd" d="M7.66666 2.84938C9.05476 2.95503 10.3485 3.59237 11.2782 4.62854L12.8591 3.04698L13.8901 4.07802L12.1109 5.85719C12.4668 6.57906 12.6666 7.39136 12.6666 8.25031C12.6641 9.87742 13.2244 11.4553 14.2525 12.7165L15.9004 11.0678L16.9322 12.0989L15.2835 13.7475C16.5448 14.7754 18.1226 15.3357 19.7497 15.3334C20.228 15.3334 20.691 15.3954 21.1322 15.5114L22.3477 13.4063L23.6106 14.1354L22.4899 16.0765C23.3051 16.5542 23.9811 17.237 24.4507 18.0569C24.9203 18.8769 25.1672 19.8055 25.1667 20.7504C25.1667 21.543 24.996 22.2963 24.6898 22.9744L26.5987 24.0769L25.8696 25.3398L23.9161 24.2118C23.4083 24.8242 22.7716 25.3169 22.0514 25.6548C21.3311 25.9927 20.5452 26.1675 19.7497 26.1667C19.6111 26.1667 19.4719 26.1652 19.3333 26.1616V28.3542H17.875V26.0697C15.6863 25.8431 13.5586 25.2126 11.5998 24.2103L10.4856 26.1404L9.2227 25.4113L10.3296 23.4935C8.89321 22.6034 7.58931 21.5155 6.45624 20.2619L4.53634 22.1825L3.5053 21.1507L5.51926 19.1368C4.31202 17.5624 3.37535 15.798 2.7477 13.9159L0.563844 14.5L0.186136 13.0913L2.34447 12.513C2.00432 11.1179 1.83271 9.68703 1.83332 8.25104C1.83332 7.75448 1.90041 7.27396 2.02509 6.81677L0.0104065 5.65229L0.739573 4.38938L2.60332 5.46563C2.99357 4.81477 3.51608 4.25306 4.13707 3.81684C4.75805 3.38062 5.46368 3.07959 6.20832 2.93323V0.645834H7.66666V2.84938ZM7.2503 4.29167C6.2004 4.29167 5.19351 4.70874 4.45112 5.45113C3.70873 6.19352 3.29166 7.20042 3.29166 8.25031C3.29166 17.3394 10.6606 24.7083 19.7497 24.7083C20.7902 24.6942 21.7833 24.271 22.5141 23.5302C23.2449 22.7894 23.6546 21.7906 23.6546 20.7501C23.6546 19.7095 23.2449 18.7107 22.5141 17.9699C21.7833 17.2291 20.7902 16.8059 19.7497 16.7918C15.032 16.7918 11.2082 12.9673 11.2082 8.25031C11.2082 7.20067 10.7913 6.19399 10.0493 5.45164C9.3072 4.7093 8.30068 4.29205 7.25103 4.29167H7.2503ZM6.93749 7.9375C6.7441 7.9375 6.55864 8.01432 6.42189 8.15107C6.28515 8.28781 6.20832 8.47328 6.20832 8.66667C6.20832 8.86005 6.28515 9.04552 6.42189 9.18227C6.55864 9.31901 6.7441 9.39583 6.93749 9.39583C7.13088 9.39583 7.31634 9.31901 7.45309 9.18227C7.58983 9.04552 7.66666 8.86005 7.66666 8.66667C7.66666 8.47328 7.58983 8.28781 7.45309 8.15107C7.31634 8.01432 7.13088 7.9375 6.93749 7.9375ZM4.74999 8.66667C4.74999 8.08651 4.98046 7.53011 5.39069 7.11987C5.80093 6.70964 6.35733 6.47917 6.93749 6.47917C7.51765 6.47917 8.07405 6.70964 8.48429 7.11987C8.89452 7.53011 9.12499 8.08651 9.12499 8.66667C9.12499 9.24683 8.89452 9.80323 8.48429 10.2135C8.07405 10.6237 7.51765 10.8542 6.93749 10.8542C6.35733 10.8542 5.80093 10.6237 5.39069 10.2135C4.98046 9.80323 4.74999 9.24683 4.74999 8.66667ZM12.7708 18.875C12.7708 18.6816 12.8476 18.4961 12.9844 18.3594C13.1211 18.2227 13.3066 18.1458 13.5 18.1458C13.6934 18.1458 13.8788 18.2227 14.0156 18.3594C14.1523 18.4961 14.2292 18.6816 14.2292 18.875C14.2292 19.0684 14.1523 19.2539 14.0156 19.3906C13.8788 19.5273 13.6934 19.6042 13.5 19.6042C13.3066 19.6042 13.1211 19.5273 12.9844 19.3906C12.8476 19.2539 12.7708 19.0684 12.7708 18.875ZM13.5 16.6875C12.9198 16.6875 12.3634 16.918 11.9532 17.3282C11.543 17.7384 11.3125 18.2948 11.3125 18.875C11.3125 19.4552 11.543 20.0116 11.9532 20.4218C12.3634 20.832 12.9198 21.0625 13.5 21.0625C14.0802 21.0625 14.6365 20.832 15.0468 20.4218C15.457 20.0116 15.6875 19.4552 15.6875 18.875C15.6875 18.2948 15.457 17.7384 15.0468 17.3282C14.6365 16.918 14.0802 16.6875 13.5 16.6875ZM9.85416 14.5C9.85416 14.8868 9.70051 15.2577 9.42702 15.5312C9.15353 15.8047 8.7826 15.9583 8.39582 15.9583C8.00905 15.9583 7.63812 15.8047 7.36463 15.5312C7.09114 15.2577 6.93749 14.8868 6.93749 14.5C6.93749 14.1132 7.09114 13.7423 7.36463 13.4688C7.63812 13.1953 8.00905 13.0417 8.39582 13.0417C8.7826 13.0417 9.15353 13.1953 9.42702 13.4688C9.70051 13.7423 9.85416 14.1132 9.85416 14.5ZM19.3333 21.7917C19.7201 21.7917 20.091 21.638 20.3645 21.3645C20.638 21.091 20.7917 20.7201 20.7917 20.3333C20.7917 19.9466 20.638 19.5756 20.3645 19.3021C20.091 19.0286 19.7201 18.875 19.3333 18.875C18.9465 18.875 18.5756 19.0286 18.3021 19.3021C18.0286 19.5756 17.875 19.9466 17.875 20.3333C17.875 20.7201 18.0286 21.091 18.3021 21.3645C18.5756 21.638 18.9465 21.7917 19.3333 21.7917Z" fill="#8f00d1"/>
</svg>
