<svg width="35" height="35" viewBox="0 0 35 35" fill="none" xmlns="http://www.w3.org/2000/svg">
<path d="M13.5525 9.16458C13.5525 9.16458 18.0369 9.61083 20.3848 7.65521C22.7327 5.69812 22.1975 1.96042 22.1975 1.96042C22.1975 1.96042 17.7131 1.51417 15.3652 3.46979C13.0173 5.42687 13.5525 9.16458 13.5525 9.16458V9.16458ZM1.83334 15.0417C1.83334 14.6549 1.98699 14.284 2.26048 14.0105C2.53397 13.737 2.9049 13.5833 3.29168 13.5833H23.7083C24.0951 13.5833 24.4661 13.737 24.7395 14.0105C25.013 14.284 25.1667 14.6549 25.1667 15.0417V17.9583C25.1667 18.3451 25.013 18.716 24.7395 18.9895C24.4661 19.263 24.0951 19.4167 23.7083 19.4167H3.29168C2.9049 19.4167 2.53397 19.263 2.26048 18.9895C1.98699 18.716 1.83334 18.3451 1.83334 17.9583V15.0417ZM3.29168 19.4167H23.7083L20.7917 31.0833H6.20834L3.29168 19.4167Z" stroke="#197B00" stroke-width="2" stroke-linecap="round" stroke-linejoin="round"/>
</svg>
