<svg width="36" height="42" viewBox="0 0 36 42" fill="none" xmlns="http://www.w3.org/2000/svg">
<path d="M6.61267 9.1875C6.61267 8.8394 6.76561 8.50556 7.03783 8.25942C7.31006 8.01328 7.67927 7.875 8.06426 7.875H22.5801C22.9651 7.875 23.3343 8.01328 23.6065 8.25942C23.8788 8.50556 24.0317 8.8394 24.0317 9.1875C24.0317 9.5356 23.8788 9.86944 23.6065 10.1156C23.3343 10.3617 22.9651 10.5 22.5801 10.5H8.06426C7.67927 10.5 7.31006 10.3617 7.03783 10.1156C6.76561 9.86944 6.61267 9.5356 6.61267 9.1875ZM6.61267 14.4375C6.61267 14.0894 6.76561 13.7556 7.03783 13.5094C7.31006 13.2633 7.67927 13.125 8.06426 13.125H28.3865C28.7714 13.125 29.1407 13.2633 29.4129 13.5094C29.6851 13.7556 29.838 14.0894 29.838 14.4375V35.4375C29.838 35.7856 29.6851 36.1194 29.4129 36.3656C29.1407 36.6117 28.7714 36.75 28.3865 36.75H8.06426C7.67927 36.75 7.31006 36.6117 7.03783 36.3656C6.76561 36.1194 6.61267 35.7856 6.61267 35.4375V14.4375Z" fill="#0FA958"/>
<path d="M0.806335 5.25C0.806335 3.85761 1.41807 2.52226 2.50697 1.53769C3.59588 0.553123 5.07274 0 6.61268 0L29.8381 0C31.378 0 32.8549 0.553123 33.9438 1.53769C35.0327 2.52226 35.6444 3.85761 35.6444 5.25V36.75C35.6444 38.1424 35.0327 39.4777 33.9438 40.4623C32.8549 41.4469 31.378 42 29.8381 42H6.61268C5.07274 42 3.59588 41.4469 2.50697 40.4623C1.41807 39.4777 0.806335 38.1424 0.806335 36.75V5.25ZM29.8381 2.625H6.61268C5.84271 2.625 5.10428 2.90156 4.55983 3.39384C4.01538 3.88613 3.70951 4.55381 3.70951 5.25V36.75C3.70951 37.4462 4.01538 38.1139 4.55983 38.6062C5.10428 39.0984 5.84271 39.375 6.61268 39.375H29.8381C30.608 39.375 31.3465 39.0984 31.8909 38.6062C32.4354 38.1139 32.7412 37.4462 32.7412 36.75V5.25C32.7412 4.55381 32.4354 3.88613 31.8909 3.39384C31.3465 2.90156 30.608 2.625 29.8381 2.625Z" fill="#0FA958"/>
</svg>
