<svg 
  xmlns="http://www.w3.org/2000/svg" 
    viewBox="0 0 35 35">
<g data-name="Layer 5">
  <path 
    d="M15.34,24.34a1,1,0,0,1-.91-.58l-.07-.15a5.91,5.91,0,0,1,.57-6.14,3.87,3.87,0,0,0,.78-2.33,4,4,0,0,0-.29-1.46L15,12.51a5.9,5.9,0,0,1,.21-4.83l.41-.84a3.89,3.89,0,0,0,.22-3l-.51-1.54a1,1,0,0,1,.34-1.11,1,1,0,0,1,1.16,0L18.06,2a5.91,5.91,0,0,1,2.63,4.91v2a4,4,0,0,0,.4,1.74l.6,1.18a5.88,5.88,0,0,1-.22,5.68l-.92,1.54a3.89,3.89,0,0,0-.36,3.24l.1.29a1,1,0,1,1-1.89.65l-.1-.3A5.84,5.84,0,0,1,18.84,18l.92-1.54a3.88,3.88,0,0,0,.14-3.75l-.59-1.18a5.86,5.86,0,0,1-.62-2.64v-2A3.88,3.88,0,0,0,18,4.68a5.89,5.89,0,0,1-.62,3L17,8.57a3.9,3.9,0,0,0-.14,3.19l.47,1.18a6.14,6.14,0,0,1,.43,2.2,5.9,5.9,0,0,1-1.18,3.53,3.91,3.91,0,0,0-.37,4.07l.08.18a1,1,0,0,1-.49,1.33A1,1,0,0,1,15.34,24.34Z" 
    fill="#013c5e"
  />
  <path 
    d="M24.5 28.06h0a1 1 0 0 1-1-1L23.56 25a5 5 0 0 1 1.79-4.16l1.29-1.08a3.09 3.09 0 0 0 1-3.07l-.27-1.2a5 5 0 0 1 .08-2.55L28 11.18a3.17 3.17 0 0 0-.13-2.1 5 5 0 0 1-1.38 2.49l-.61.61A3.09 3.09 0 0 0 25 14.79L25.11 16a5.16 5.16 0 0 1-2.23 4.92 3.09 3.09 0 0 0-1.38 2.3 1 1 0 0 1-2-.17 5.09 5.09 0 0 1 2.25-3.78 3.1 3.1 0 0 0 1.37-3L23 15.05a5 5 0 0 1 1.45-4.28l.61-.61A3.09 3.09 0 0 0 26 7.74l-.12-1.47a1 1 0 0 1 1.73-.76l1 1.1a5.31 5.31 0 0 1 1.29 5.12l-.49 1.74A3 3 0 0 0 29.34 15l.27 1.21a5 5 0 0 1-1.68 5l-1.28 1.09a3.06 3.06 0 0 0-1.1 2.58l-.05 2.17A1 1 0 0 1 24.5 28.06zM12.1 27.05h0a1 1 0 0 1-.61-.21l-.57-.44a5.92 5.92 0 0 1-2.24-5.77A4.7 4.7 0 0 0 8.73 20 3.87 3.87 0 0 0 7.42 17l-1-.85a5.94 5.94 0 0 1-2-4.41v-.95A3.87 3.87 0 0 0 3.36 8.09L2.21 6.93A1 1 0 0 1 2 5.78a1 1 0 0 1 1-.55l1.54.2A5.88 5.88 0 0 1 9.12 8.64L10 10.43a3.88 3.88 0 0 0 1.16 1.38l1.05.78a6 6 0 0 1 2.34 5.18l-.15 1.8a3.94 3.94 0 0 0 1.13 3.05l.11.1a1 1 0 0 1-1.41 1.41l-.11-.1a5.91 5.91 0 0 1-1.71-4.62l.15-1.8A4 4 0 0 0 11 14.19l-1-.77a6 6 0 0 1-1.74-2.09l-.9-1.8A3.83 3.83 0 0 0 5.68 7.84a6 6 0 0 1 .81 3v.95A3.94 3.94 0 0 0 7.8 14.7l1 .84a5.88 5.88 0 0 1 2 4.41 6.83 6.83 0 0 1-.09 1 3.94 3.94 0 0 0 1.48 3.84l.54.42a1 1 0 0 1-.56 1.82z"
    fill="#013c5e"
  />
  <path 
    d="M25,31H11.1a1,1,0,0,1-1-1A7.93,7.93,0,0,1,26,30,1,1,0,0,1,25,31ZM12.18,29h11.7a5.94,5.94,0,0,0-11.7,0Z" 
    fill="#013c5e"
  />
</g>
</svg>